<svg width="68" height="65" viewBox="0 0 68 65" fill="none" xmlns="http://www.w3.org/2000/svg">
<g clip-path="url(#clip0_10_109)">
<path d="M24.9481 7.461C23.8374 4.73517 19.5918 4.73517 18.481 7.461L16.9435 11.2343C16.5943 12.0913 15.8502 12.7669 14.9065 13.0841L10.7513 14.4803C7.74957 15.4889 7.74957 19.3443 10.7513 20.353L14.9065 21.7492C15.8502 22.0663 16.5943 22.742 16.9435 23.599L18.481 27.3722C19.5918 30.0981 23.8374 30.0981 24.9481 27.3723L26.4857 23.599C26.8349 22.742 27.5789 22.0663 28.5227 21.7492L32.6779 20.353C35.6796 19.3443 35.6796 15.4889 32.6779 14.4803L28.5227 13.0841C27.5789 12.7669 26.8349 12.0913 26.4857 11.2343L24.9481 7.461Z" fill="#56153A"/>
<path d="M52.5548 24.2498C50.4721 19.1389 42.5117 19.1389 40.429 24.2498L37.5461 31.3247C36.8913 32.9316 35.4962 34.1985 33.7267 34.7931L25.9358 37.411C20.3075 39.3022 20.3075 46.531 25.9358 48.4223L33.7267 51.0402C35.4962 51.6348 36.8913 52.9017 37.5461 54.5086L40.429 61.5834C42.5117 66.6944 50.4721 66.6944 52.5548 61.5834L55.4377 54.5086C56.0925 52.9017 57.4876 51.6348 59.2571 51.0402L67.0481 48.4223C72.6763 46.531 72.6763 39.3022 67.048 37.411L59.2571 34.7931C57.4876 34.1985 56.0925 32.9316 55.4377 31.3247L52.5548 24.2498Z" fill="#56153A"/>
</g>
<defs>
<clipPath id="clip0_10_109">
<rect width="68" height="65" fill="white"/>
</clipPath>
</defs>
</svg>
