<svg width="80" height="80" viewBox="0 0 80 80" fill="none" xmlns="http://www.w3.org/2000/svg">
<path d="M55.1012 35.1011C56.0775 34.1248 56.0775 32.5418 55.1012 31.5655C54.1249 30.5892 52.542 30.5892 51.5656 31.5655L43.3334 39.7978L40.1012 36.5655C39.1249 35.5892 37.542 35.5892 36.5656 36.5655L24.899 48.2322C23.9227 49.2085 23.9227 50.7914 24.899 51.7677C25.8753 52.744 27.4582 52.744 28.4345 51.7677L38.3334 41.8688L41.5656 45.1011C42.542 46.0774 44.1249 46.0774 45.1012 45.1011L55.1012 35.1011Z" fill="#56153A"/>
<path fill-rule="evenodd" clip-rule="evenodd" d="M6.66675 40C6.66675 52.4615 6.66675 58.6923 9.34624 63.3333C11.1016 66.3737 13.6264 68.8984 16.6667 70.6538C21.3078 73.3333 27.5385 73.3333 40.0001 73.3333C52.4616 73.3333 58.6924 73.3333 63.3334 70.6538C66.3738 68.8984 68.8986 66.3737 70.6539 63.3333C73.3334 58.6923 73.3334 52.4615 73.3334 40C73.3334 27.5384 73.3334 21.3076 70.6539 16.6666C68.8986 13.6262 66.3738 11.1015 63.3334 9.34612C58.6924 6.66663 52.4616 6.66663 40.0001 6.66663C27.5385 6.66663 21.3078 6.66663 16.6667 9.34612C13.6264 11.1015 11.1016 13.6262 9.34624 16.6666C6.66675 21.3076 6.66675 27.5384 6.66675 40ZM66.3238 19.1666C67.151 20.5993 67.7154 22.5032 68.0189 25.8519C68.3286 29.2694 68.3334 33.6772 68.3334 40C68.3334 46.3228 68.3286 50.7305 68.0189 54.148C67.7154 57.4967 67.151 59.4006 66.3238 60.8333C65.0073 63.1136 63.1137 65.0071 60.8334 66.3237C59.4007 67.1508 57.4969 67.7153 54.1481 68.0188C50.7307 68.3285 46.3229 68.3333 40.0001 68.3333C33.6773 68.3333 29.2695 68.3285 25.852 68.0188C22.5033 67.7153 20.5994 67.1508 19.1667 66.3237C16.8865 65.0072 14.9929 63.1136 13.6764 60.8333C12.8492 59.4006 12.2848 57.4967 11.9813 54.148C11.6715 50.7305 11.6667 46.3228 11.6667 40C11.6667 33.6772 11.6715 29.2694 11.9813 25.8519C12.2848 22.5032 12.8492 20.5993 13.6764 19.1666C14.9929 16.8863 16.8865 14.9928 19.1667 13.6762C20.5994 12.8491 22.5033 12.2847 25.852 11.9812C29.2695 11.6714 33.6773 11.6666 40.0001 11.6666C46.3229 11.6666 50.7307 11.6714 54.1481 11.9812C57.4968 12.2847 59.4007 12.8491 60.8334 13.6762C63.1137 14.9928 65.0073 16.8863 66.3238 19.1666Z" fill="#56153A"/>
</svg>
